<mxfile host="Electron" modified="2024-03-26T03:48:25.066Z" agent="Mozilla/5.0 (Windows NT 10.0; Win64; x64) AppleWebKit/537.36 (KHTML, like Gecko) draw.io/22.0.2 Chrome/114.0.5735.289 Electron/25.8.4 Safari/537.36" etag="m1a7GQCyD4YTjd1P-b_i" version="22.0.2" type="device">
  <diagram id="C5RBs43oDa-KdzZeNtuy" name="Page-1">
    <mxGraphModel dx="1863" dy="614" grid="1" gridSize="10" guides="1" tooltips="1" connect="1" arrows="1" fold="1" page="1" pageScale="1" pageWidth="827" pageHeight="1169" math="0" shadow="0">
      <root>
        <mxCell id="WIyWlLk6GJQsqaUBKTNV-0" />
        <mxCell id="WIyWlLk6GJQsqaUBKTNV-1" parent="WIyWlLk6GJQsqaUBKTNV-0" />
        <mxCell id="CIWU5-Li_JWedh6oEh05-2" value="&lt;p style=&quot;line-height: 120%;&quot;&gt;&lt;b style=&quot;&quot;&gt;&lt;font style=&quot;font-size: 17px;&quot; face=&quot;Comic Sans MS&quot;&gt;usuário&lt;/font&gt;&lt;/b&gt;&lt;/p&gt;" style="shape=umlActor;verticalLabelPosition=bottom;verticalAlign=top;html=1;" parent="WIyWlLk6GJQsqaUBKTNV-1" vertex="1">
          <mxGeometry x="-715" y="529.36" width="80" height="170" as="geometry" />
        </mxCell>
        <mxCell id="CIWU5-Li_JWedh6oEh05-3" value="" style="rounded=0;whiteSpace=wrap;html=1;fillColor=none;" parent="WIyWlLk6GJQsqaUBKTNV-1" vertex="1">
          <mxGeometry x="-590" y="440" width="390" height="330" as="geometry" />
        </mxCell>
        <mxCell id="CIWU5-Li_JWedh6oEh05-4" value="fronteira do sistema&lt;br&gt;" style="text;html=1;strokeColor=none;fillColor=none;align=center;verticalAlign=middle;whiteSpace=wrap;rounded=0;fontStyle=1;fontFamily=Comic Sans MS;" parent="WIyWlLk6GJQsqaUBKTNV-1" vertex="1">
          <mxGeometry x="-463" y="770" width="136" height="30" as="geometry" />
        </mxCell>
        <mxCell id="CIWU5-Li_JWedh6oEh05-6" value="Consultar anestésicos" style="ellipse;whiteSpace=wrap;html=1;" parent="WIyWlLk6GJQsqaUBKTNV-1" vertex="1">
          <mxGeometry x="-554" y="460" width="120" height="80" as="geometry" />
        </mxCell>
        <mxCell id="CIWU5-Li_JWedh6oEh05-8" value="" style="endArrow=none;startArrow=none;endFill=0;startFill=0;endSize=8;html=1;verticalAlign=bottom;labelBackgroundColor=none;strokeWidth=3;rounded=0;exitX=0.5;exitY=0.5;exitDx=0;exitDy=0;exitPerimeter=0;" parent="WIyWlLk6GJQsqaUBKTNV-1" source="CIWU5-Li_JWedh6oEh05-2" target="CIWU5-Li_JWedh6oEh05-6" edge="1">
          <mxGeometry width="160" relative="1" as="geometry">
            <mxPoint x="-464" y="619.36" as="sourcePoint" />
            <mxPoint x="-545.24" y="510" as="targetPoint" />
          </mxGeometry>
        </mxCell>
        <mxCell id="CIWU5-Li_JWedh6oEh05-9" value="Fazer Cálculo" style="ellipse;whiteSpace=wrap;html=1;" parent="WIyWlLk6GJQsqaUBKTNV-1" vertex="1">
          <mxGeometry x="-554" y="609.36" width="120" height="80" as="geometry" />
        </mxCell>
        <mxCell id="CIWU5-Li_JWedh6oEh05-10" value="" style="endArrow=none;startArrow=none;endFill=0;startFill=0;endSize=8;html=1;verticalAlign=bottom;labelBackgroundColor=none;strokeWidth=3;rounded=0;exitX=0.5;exitY=0.5;exitDx=0;exitDy=0;exitPerimeter=0;entryX=0.062;entryY=0.317;entryDx=0;entryDy=0;entryPerimeter=0;" parent="WIyWlLk6GJQsqaUBKTNV-1" source="CIWU5-Li_JWedh6oEh05-2" target="CIWU5-Li_JWedh6oEh05-9" edge="1">
          <mxGeometry width="160" relative="1" as="geometry">
            <mxPoint x="-464" y="619.36" as="sourcePoint" />
            <mxPoint x="-304" y="619.36" as="targetPoint" />
          </mxGeometry>
        </mxCell>
        <mxCell id="CIWU5-Li_JWedh6oEh05-11" value="Manter anestésicos" style="ellipse;whiteSpace=wrap;html=1;" parent="WIyWlLk6GJQsqaUBKTNV-1" vertex="1">
          <mxGeometry x="-353" y="449.36" width="120" height="80" as="geometry" />
        </mxCell>
        <mxCell id="CIWU5-Li_JWedh6oEh05-14" value="&amp;lt;&amp;lt;extend&amp;gt;&amp;gt;" style="html=1;verticalAlign=bottom;labelBackgroundColor=none;endArrow=open;endFill=0;dashed=1;rounded=0;exitX=1;exitY=0.5;exitDx=0;exitDy=0;entryX=0;entryY=0.5;entryDx=0;entryDy=0;" parent="WIyWlLk6GJQsqaUBKTNV-1" source="CIWU5-Li_JWedh6oEh05-6" target="CIWU5-Li_JWedh6oEh05-11" edge="1">
          <mxGeometry width="160" relative="1" as="geometry">
            <mxPoint x="-790" y="660" as="sourcePoint" />
            <mxPoint x="-630" y="660" as="targetPoint" />
          </mxGeometry>
        </mxCell>
        <mxCell id="CIWU5-Li_JWedh6oEh05-15" value="Ver cálculo" style="ellipse;whiteSpace=wrap;html=1;" parent="WIyWlLk6GJQsqaUBKTNV-1" vertex="1">
          <mxGeometry x="-353" y="549.36" width="120" height="80" as="geometry" />
        </mxCell>
        <mxCell id="CIWU5-Li_JWedh6oEh05-16" value="Adicionar variáveis" style="ellipse;whiteSpace=wrap;html=1;" parent="WIyWlLk6GJQsqaUBKTNV-1" vertex="1">
          <mxGeometry x="-353" y="683.36" width="120" height="80" as="geometry" />
        </mxCell>
        <mxCell id="CIWU5-Li_JWedh6oEh05-18" value="&amp;lt;&amp;lt;extend&amp;gt;&amp;gt;" style="html=1;verticalAlign=bottom;labelBackgroundColor=none;endArrow=open;endFill=0;dashed=1;rounded=0;exitX=1;exitY=0.5;exitDx=0;exitDy=0;" parent="WIyWlLk6GJQsqaUBKTNV-1" source="CIWU5-Li_JWedh6oEh05-9" target="CIWU5-Li_JWedh6oEh05-16" edge="1">
          <mxGeometry x="0.5996" y="11" width="160" relative="1" as="geometry">
            <mxPoint x="-464" y="619.36" as="sourcePoint" />
            <mxPoint x="-304" y="619.36" as="targetPoint" />
            <mxPoint as="offset" />
          </mxGeometry>
        </mxCell>
        <mxCell id="CIWU5-Li_JWedh6oEh05-19" value="&amp;lt;&amp;lt;extend&amp;gt;&amp;gt;" style="html=1;verticalAlign=bottom;labelBackgroundColor=none;endArrow=open;endFill=0;dashed=1;rounded=0;" parent="WIyWlLk6GJQsqaUBKTNV-1" source="CIWU5-Li_JWedh6oEh05-9" target="CIWU5-Li_JWedh6oEh05-15" edge="1">
          <mxGeometry x="-0.4122" y="6" width="160" relative="1" as="geometry">
            <mxPoint x="-464" y="619.36" as="sourcePoint" />
            <mxPoint x="-304" y="619.36" as="targetPoint" />
            <mxPoint as="offset" />
          </mxGeometry>
        </mxCell>
        <mxCell id="CIWU5-Li_JWedh6oEh05-28" value="" style="edgeStyle=orthogonalEdgeStyle;rounded=0;orthogonalLoop=1;jettySize=auto;html=1;" parent="WIyWlLk6GJQsqaUBKTNV-1" source="CIWU5-Li_JWedh6oEh05-20" target="CIWU5-Li_JWedh6oEh05-21" edge="1">
          <mxGeometry relative="1" as="geometry" />
        </mxCell>
        <mxCell id="CIWU5-Li_JWedh6oEh05-20" value="Escolhe anestésico" style="ellipse;whiteSpace=wrap;html=1;" parent="WIyWlLk6GJQsqaUBKTNV-1" vertex="1">
          <mxGeometry x="36" y="1540" width="120" height="80" as="geometry" />
        </mxCell>
        <mxCell id="CIWU5-Li_JWedh6oEh05-29" value="" style="edgeStyle=orthogonalEdgeStyle;rounded=0;orthogonalLoop=1;jettySize=auto;html=1;" parent="WIyWlLk6GJQsqaUBKTNV-1" source="CIWU5-Li_JWedh6oEh05-21" target="CIWU5-Li_JWedh6oEh05-22" edge="1">
          <mxGeometry relative="1" as="geometry" />
        </mxCell>
        <mxCell id="CIWU5-Li_JWedh6oEh05-30" value="" style="edgeStyle=orthogonalEdgeStyle;rounded=0;orthogonalLoop=1;jettySize=auto;html=1;" parent="WIyWlLk6GJQsqaUBKTNV-1" source="CIWU5-Li_JWedh6oEh05-21" target="CIWU5-Li_JWedh6oEh05-23" edge="1">
          <mxGeometry relative="1" as="geometry" />
        </mxCell>
        <mxCell id="CIWU5-Li_JWedh6oEh05-21" value="Mais variáveis" style="rhombus;whiteSpace=wrap;html=1;" parent="WIyWlLk6GJQsqaUBKTNV-1" vertex="1">
          <mxGeometry x="218" y="1540" width="160" height="80" as="geometry" />
        </mxCell>
        <mxCell id="CIWU5-Li_JWedh6oEh05-22" value="Põe variáveis" style="ellipse;whiteSpace=wrap;html=1;" parent="WIyWlLk6GJQsqaUBKTNV-1" vertex="1">
          <mxGeometry x="436" y="1540" width="120" height="80" as="geometry" />
        </mxCell>
        <mxCell id="CIWU5-Li_JWedh6oEh05-31" value="" style="edgeStyle=orthogonalEdgeStyle;rounded=0;orthogonalLoop=1;jettySize=auto;html=1;" parent="WIyWlLk6GJQsqaUBKTNV-1" source="CIWU5-Li_JWedh6oEh05-23" target="CIWU5-Li_JWedh6oEh05-25" edge="1">
          <mxGeometry relative="1" as="geometry" />
        </mxCell>
        <mxCell id="CIWU5-Li_JWedh6oEh05-23" value="Faz o cálculo" style="ellipse;whiteSpace=wrap;html=1;" parent="WIyWlLk6GJQsqaUBKTNV-1" vertex="1">
          <mxGeometry x="238" y="1690" width="120" height="80" as="geometry" />
        </mxCell>
        <mxCell id="CIWU5-Li_JWedh6oEh05-32" value="" style="edgeStyle=orthogonalEdgeStyle;rounded=0;orthogonalLoop=1;jettySize=auto;html=1;" parent="WIyWlLk6GJQsqaUBKTNV-1" source="CIWU5-Li_JWedh6oEh05-25" target="CIWU5-Li_JWedh6oEh05-27" edge="1">
          <mxGeometry relative="1" as="geometry" />
        </mxCell>
        <mxCell id="CIWU5-Li_JWedh6oEh05-33" value="" style="edgeStyle=orthogonalEdgeStyle;rounded=0;orthogonalLoop=1;jettySize=auto;html=1;" parent="WIyWlLk6GJQsqaUBKTNV-1" source="CIWU5-Li_JWedh6oEh05-25" edge="1">
          <mxGeometry relative="1" as="geometry">
            <mxPoint x="496" y="1810" as="targetPoint" />
          </mxGeometry>
        </mxCell>
        <mxCell id="CIWU5-Li_JWedh6oEh05-25" value="Exibir cálculo" style="rhombus;whiteSpace=wrap;html=1;" parent="WIyWlLk6GJQsqaUBKTNV-1" vertex="1">
          <mxGeometry x="416" y="1690" width="160" height="80" as="geometry" />
        </mxCell>
        <mxCell id="CIWU5-Li_JWedh6oEh05-27" value="Exibe cálculo" style="ellipse;whiteSpace=wrap;html=1;" parent="WIyWlLk6GJQsqaUBKTNV-1" vertex="1">
          <mxGeometry x="636" y="1690" width="120" height="80" as="geometry" />
        </mxCell>
        <mxCell id="CIWU5-Li_JWedh6oEh05-34" value="" style="endArrow=classic;html=1;rounded=0;entryX=1;entryY=0;entryDx=0;entryDy=0;exitX=0;exitY=1;exitDx=0;exitDy=0;" parent="WIyWlLk6GJQsqaUBKTNV-1" source="CIWU5-Li_JWedh6oEh05-22" target="CIWU5-Li_JWedh6oEh05-23" edge="1">
          <mxGeometry width="50" height="50" relative="1" as="geometry">
            <mxPoint x="306" y="1690" as="sourcePoint" />
            <mxPoint x="356" y="1640" as="targetPoint" />
          </mxGeometry>
        </mxCell>
        <mxCell id="CIWU5-Li_JWedh6oEh05-35" value="Sim" style="text;html=1;strokeColor=none;fillColor=none;align=center;verticalAlign=middle;whiteSpace=wrap;rounded=0;" parent="WIyWlLk6GJQsqaUBKTNV-1" vertex="1">
          <mxGeometry x="366" y="1550" width="60" height="30" as="geometry" />
        </mxCell>
        <mxCell id="CIWU5-Li_JWedh6oEh05-37" value="Não" style="text;html=1;strokeColor=none;fillColor=none;align=center;verticalAlign=middle;whiteSpace=wrap;rounded=0;" parent="WIyWlLk6GJQsqaUBKTNV-1" vertex="1">
          <mxGeometry x="298" y="1640" width="60" height="30" as="geometry" />
        </mxCell>
        <mxCell id="CIWU5-Li_JWedh6oEh05-38" value="Sim" style="text;html=1;strokeColor=none;fillColor=none;align=center;verticalAlign=middle;whiteSpace=wrap;rounded=0;" parent="WIyWlLk6GJQsqaUBKTNV-1" vertex="1">
          <mxGeometry x="566" y="1700" width="60" height="30" as="geometry" />
        </mxCell>
        <mxCell id="CIWU5-Li_JWedh6oEh05-39" value="Não" style="text;html=1;strokeColor=none;fillColor=none;align=center;verticalAlign=middle;whiteSpace=wrap;rounded=0;" parent="WIyWlLk6GJQsqaUBKTNV-1" vertex="1">
          <mxGeometry x="496" y="1770" width="60" height="30" as="geometry" />
        </mxCell>
        <mxCell id="CIWU5-Li_JWedh6oEh05-40" value="" style="endArrow=classic;html=1;rounded=0;entryX=1;entryY=0.5;entryDx=0;entryDy=0;exitX=0;exitY=1;exitDx=0;exitDy=0;" parent="WIyWlLk6GJQsqaUBKTNV-1" source="CIWU5-Li_JWedh6oEh05-27" target="CIWU5-Li_JWedh6oEh05-64" edge="1">
          <mxGeometry width="50" height="50" relative="1" as="geometry">
            <mxPoint x="464" y="1618" as="sourcePoint" />
            <mxPoint x="554.44" y="1841.44" as="targetPoint" />
          </mxGeometry>
        </mxCell>
        <mxCell id="CIWU5-Li_JWedh6oEh05-50" value="" style="edgeStyle=orthogonalEdgeStyle;rounded=0;orthogonalLoop=1;jettySize=auto;html=1;" parent="WIyWlLk6GJQsqaUBKTNV-1" source="CIWU5-Li_JWedh6oEh05-41" target="CIWU5-Li_JWedh6oEh05-45" edge="1">
          <mxGeometry relative="1" as="geometry" />
        </mxCell>
        <mxCell id="CIWU5-Li_JWedh6oEh05-51" value="" style="edgeStyle=orthogonalEdgeStyle;rounded=0;orthogonalLoop=1;jettySize=auto;html=1;" parent="WIyWlLk6GJQsqaUBKTNV-1" source="CIWU5-Li_JWedh6oEh05-41" target="CIWU5-Li_JWedh6oEh05-42" edge="1">
          <mxGeometry relative="1" as="geometry" />
        </mxCell>
        <mxCell id="CIWU5-Li_JWedh6oEh05-41" value="Procura anestésico" style="ellipse;whiteSpace=wrap;html=1;" parent="WIyWlLk6GJQsqaUBKTNV-1" vertex="1">
          <mxGeometry x="151" y="1940" width="120" height="80" as="geometry" />
        </mxCell>
        <mxCell id="CIWU5-Li_JWedh6oEh05-52" value="" style="edgeStyle=orthogonalEdgeStyle;rounded=0;orthogonalLoop=1;jettySize=auto;html=1;" parent="WIyWlLk6GJQsqaUBKTNV-1" source="CIWU5-Li_JWedh6oEh05-42" target="CIWU5-Li_JWedh6oEh05-43" edge="1">
          <mxGeometry relative="1" as="geometry" />
        </mxCell>
        <mxCell id="CIWU5-Li_JWedh6oEh05-42" value="Seleciona anestésico na liista" style="ellipse;whiteSpace=wrap;html=1;" parent="WIyWlLk6GJQsqaUBKTNV-1" vertex="1">
          <mxGeometry x="352" y="1940" width="120" height="80" as="geometry" />
        </mxCell>
        <mxCell id="CIWU5-Li_JWedh6oEh05-55" value="" style="edgeStyle=orthogonalEdgeStyle;rounded=0;orthogonalLoop=1;jettySize=auto;html=1;" parent="WIyWlLk6GJQsqaUBKTNV-1" source="CIWU5-Li_JWedh6oEh05-43" target="CIWU5-Li_JWedh6oEh05-46" edge="1">
          <mxGeometry relative="1" as="geometry" />
        </mxCell>
        <mxCell id="CIWU5-Li_JWedh6oEh05-43" value="Mostra detalhes do anestésico" style="ellipse;whiteSpace=wrap;html=1;" parent="WIyWlLk6GJQsqaUBKTNV-1" vertex="1">
          <mxGeometry x="352" y="2080" width="120" height="80" as="geometry" />
        </mxCell>
        <mxCell id="CIWU5-Li_JWedh6oEh05-44" value="Mantém anestésico" style="ellipse;whiteSpace=wrap;html=1;" parent="WIyWlLk6GJQsqaUBKTNV-1" vertex="1">
          <mxGeometry x="151" y="2230" width="120" height="80" as="geometry" />
        </mxCell>
        <mxCell id="CIWU5-Li_JWedh6oEh05-53" value="" style="edgeStyle=orthogonalEdgeStyle;rounded=0;orthogonalLoop=1;jettySize=auto;html=1;" parent="WIyWlLk6GJQsqaUBKTNV-1" source="CIWU5-Li_JWedh6oEh05-45" target="CIWU5-Li_JWedh6oEh05-43" edge="1">
          <mxGeometry relative="1" as="geometry" />
        </mxCell>
        <mxCell id="CIWU5-Li_JWedh6oEh05-54" value="" style="edgeStyle=orthogonalEdgeStyle;rounded=0;orthogonalLoop=1;jettySize=auto;html=1;" parent="WIyWlLk6GJQsqaUBKTNV-1" source="CIWU5-Li_JWedh6oEh05-45" target="CIWU5-Li_JWedh6oEh05-44" edge="1">
          <mxGeometry relative="1" as="geometry" />
        </mxCell>
        <mxCell id="CIWU5-Li_JWedh6oEh05-45" value="Manter anestésico" style="rhombus;whiteSpace=wrap;html=1;" parent="WIyWlLk6GJQsqaUBKTNV-1" vertex="1">
          <mxGeometry x="136" y="2070" width="150" height="100" as="geometry" />
        </mxCell>
        <mxCell id="CIWU5-Li_JWedh6oEh05-56" value="" style="edgeStyle=orthogonalEdgeStyle;rounded=0;orthogonalLoop=1;jettySize=auto;html=1;" parent="WIyWlLk6GJQsqaUBKTNV-1" source="CIWU5-Li_JWedh6oEh05-46" target="CIWU5-Li_JWedh6oEh05-48" edge="1">
          <mxGeometry relative="1" as="geometry" />
        </mxCell>
        <mxCell id="CIWU5-Li_JWedh6oEh05-57" value="" style="edgeStyle=orthogonalEdgeStyle;rounded=0;orthogonalLoop=1;jettySize=auto;html=1;" parent="WIyWlLk6GJQsqaUBKTNV-1" source="CIWU5-Li_JWedh6oEh05-46" edge="1">
          <mxGeometry relative="1" as="geometry">
            <mxPoint x="597" y="2230" as="targetPoint" />
          </mxGeometry>
        </mxCell>
        <mxCell id="CIWU5-Li_JWedh6oEh05-46" value="Modificar anestésico" style="rhombus;whiteSpace=wrap;html=1;" parent="WIyWlLk6GJQsqaUBKTNV-1" vertex="1">
          <mxGeometry x="522" y="2070" width="150" height="100" as="geometry" />
        </mxCell>
        <mxCell id="CIWU5-Li_JWedh6oEh05-58" value="" style="edgeStyle=orthogonalEdgeStyle;rounded=0;orthogonalLoop=1;jettySize=auto;html=1;" parent="WIyWlLk6GJQsqaUBKTNV-1" source="CIWU5-Li_JWedh6oEh05-48" target="CIWU5-Li_JWedh6oEh05-49" edge="1">
          <mxGeometry relative="1" as="geometry" />
        </mxCell>
        <mxCell id="CIWU5-Li_JWedh6oEh05-48" value="Modifica detalhes do anestésico" style="ellipse;whiteSpace=wrap;html=1;" parent="WIyWlLk6GJQsqaUBKTNV-1" vertex="1">
          <mxGeometry x="706" y="2080" width="120" height="80" as="geometry" />
        </mxCell>
        <mxCell id="CIWU5-Li_JWedh6oEh05-49" value="Mantém&amp;nbsp; dados modificados" style="ellipse;whiteSpace=wrap;html=1;" parent="WIyWlLk6GJQsqaUBKTNV-1" vertex="1">
          <mxGeometry x="866" y="2080" width="120" height="80" as="geometry" />
        </mxCell>
        <mxCell id="CIWU5-Li_JWedh6oEh05-59" value="" style="endArrow=classic;html=1;rounded=0;entryX=0;entryY=1;entryDx=0;entryDy=0;" parent="WIyWlLk6GJQsqaUBKTNV-1" source="CIWU5-Li_JWedh6oEh05-44" target="CIWU5-Li_JWedh6oEh05-43" edge="1">
          <mxGeometry width="50" height="50" relative="1" as="geometry">
            <mxPoint x="436" y="2200" as="sourcePoint" />
            <mxPoint x="486" y="2150" as="targetPoint" />
          </mxGeometry>
        </mxCell>
        <mxCell id="CIWU5-Li_JWedh6oEh05-60" value="" style="endArrow=classic;html=1;rounded=0;entryX=1;entryY=0.5;entryDx=0;entryDy=0;" parent="WIyWlLk6GJQsqaUBKTNV-1" source="CIWU5-Li_JWedh6oEh05-49" target="CIWU5-Li_JWedh6oEh05-63" edge="1">
          <mxGeometry width="50" height="50" relative="1" as="geometry">
            <mxPoint x="436" y="2200" as="sourcePoint" />
            <mxPoint x="657" y="2270" as="targetPoint" />
          </mxGeometry>
        </mxCell>
        <mxCell id="CIWU5-Li_JWedh6oEh05-62" value="" style="edgeStyle=orthogonalEdgeStyle;rounded=0;orthogonalLoop=1;jettySize=auto;html=1;" parent="WIyWlLk6GJQsqaUBKTNV-1" source="CIWU5-Li_JWedh6oEh05-61" target="CIWU5-Li_JWedh6oEh05-41" edge="1">
          <mxGeometry relative="1" as="geometry" />
        </mxCell>
        <mxCell id="CIWU5-Li_JWedh6oEh05-61" value="Início" style="ellipse;whiteSpace=wrap;html=1;aspect=fixed;" parent="WIyWlLk6GJQsqaUBKTNV-1" vertex="1">
          <mxGeometry x="36" y="1940" width="80" height="80" as="geometry" />
        </mxCell>
        <mxCell id="CIWU5-Li_JWedh6oEh05-63" value="Fim" style="ellipse;whiteSpace=wrap;html=1;aspect=fixed;" parent="WIyWlLk6GJQsqaUBKTNV-1" vertex="1">
          <mxGeometry x="557" y="2230" width="80" height="80" as="geometry" />
        </mxCell>
        <mxCell id="CIWU5-Li_JWedh6oEh05-64" value="Fim" style="ellipse;whiteSpace=wrap;html=1;aspect=fixed;" parent="WIyWlLk6GJQsqaUBKTNV-1" vertex="1">
          <mxGeometry x="456" y="1810" width="80" height="80" as="geometry" />
        </mxCell>
        <mxCell id="CIWU5-Li_JWedh6oEh05-66" value="" style="edgeStyle=orthogonalEdgeStyle;rounded=0;orthogonalLoop=1;jettySize=auto;html=1;" parent="WIyWlLk6GJQsqaUBKTNV-1" source="CIWU5-Li_JWedh6oEh05-65" target="CIWU5-Li_JWedh6oEh05-20" edge="1">
          <mxGeometry relative="1" as="geometry" />
        </mxCell>
        <mxCell id="CIWU5-Li_JWedh6oEh05-65" value="Início" style="ellipse;whiteSpace=wrap;html=1;aspect=fixed;" parent="WIyWlLk6GJQsqaUBKTNV-1" vertex="1">
          <mxGeometry x="56" y="1420" width="80" height="80" as="geometry" />
        </mxCell>
        <mxCell id="CIWU5-Li_JWedh6oEh05-70" value="Sim" style="text;html=1;strokeColor=none;fillColor=none;align=center;verticalAlign=middle;whiteSpace=wrap;rounded=0;" parent="WIyWlLk6GJQsqaUBKTNV-1" vertex="1">
          <mxGeometry x="211" y="2180" width="60" height="30" as="geometry" />
        </mxCell>
        <mxCell id="CIWU5-Li_JWedh6oEh05-71" value="Sim" style="text;html=1;strokeColor=none;fillColor=none;align=center;verticalAlign=middle;whiteSpace=wrap;rounded=0;" parent="WIyWlLk6GJQsqaUBKTNV-1" vertex="1">
          <mxGeometry x="653" y="2090" width="60" height="30" as="geometry" />
        </mxCell>
        <mxCell id="CIWU5-Li_JWedh6oEh05-72" value="Não" style="text;html=1;strokeColor=none;fillColor=none;align=center;verticalAlign=middle;whiteSpace=wrap;rounded=0;" parent="WIyWlLk6GJQsqaUBKTNV-1" vertex="1">
          <mxGeometry x="286" y="2090" width="60" height="30" as="geometry" />
        </mxCell>
        <mxCell id="CIWU5-Li_JWedh6oEh05-73" value="Não" style="text;html=1;strokeColor=none;fillColor=none;align=center;verticalAlign=middle;whiteSpace=wrap;rounded=0;" parent="WIyWlLk6GJQsqaUBKTNV-1" vertex="1">
          <mxGeometry x="602" y="2180" width="60" height="30" as="geometry" />
        </mxCell>
      </root>
    </mxGraphModel>
  </diagram>
</mxfile>
